<svg xmlns="http://www.w3.org/2000/svg" width="197" height="89" viewBox="0 0 197 89" class="editor-view__logo-preview" data-v-8d8ae3dd="" data-v-b0ffd048=""><svg id="mark" viewBox="0 0 32 32" width="89" height="89" x="0" y="0" data-v-8d8ae3dd="" style="fill: rgb(255, 255, 255);"><rect x="0" y="0" width="100%" height="100%" fill="none" data-v-8d8ae3dd=""></rect><g data-v-8d8ae3dd=""><g xmlns="http://www.w3.org/2000/svg"><g><polygon points="9.382,8.675 23.325,8.675 23.325,22.618 32,31.293 32,0 0.707,0   "></polygon><polygon points="22.618,23.325 8.675,23.325 8.675,9.382 0,0.707 0,32 31.293,32   "></polygon></g></g></g></svg><svg id="name" viewBox="0 0 92.8984375 44.787109375" width="92" height="44.35396518375242" x="105" y="22.32301740812379" data-v-8d8ae3dd="" style="fill: rgb(255, 255, 255);"><rect x="0" y="0" width="100%" height="100%" fill="none" data-v-8d8ae3dd=""></rect><g data-v-8d8ae3dd=""><path xmlns="http://www.w3.org/2000/svg" d="M0 22.91L0 22.64Q0 17.05 2.66 13.63Q5.32 10.22 9.84 10.22L9.84 10.22Q13.84 10.22 16.06 12.96L16.06 12.96L16.33 10.67L22.21 10.67L22.21 34.16Q22.21 37.35 20.77 39.71Q19.32 42.07 16.69 43.30Q14.06 44.54 10.53 44.54L10.53 44.54Q7.86 44.54 5.32 43.47Q2.79 42.41 1.48 40.72L1.48 40.72L4.36 36.77Q6.78 39.49 10.24 39.49L10.24 39.49Q12.83 39.49 14.26 38.10Q15.70 36.72 15.70 34.19L15.70 34.19L15.70 32.88Q13.45 35.42 9.79 35.42L9.79 35.42Q5.41 35.42 2.71 32.00Q0 28.57 0 22.91L0 22.91ZM6.49 23.11L6.49 23.11Q6.49 26.41 7.82 28.29Q9.14 30.17 11.46 30.17L11.46 30.17Q14.42 30.17 15.70 27.94L15.70 27.94L15.70 17.72Q14.40 15.50 11.50 15.50L11.50 15.50Q9.16 15.50 7.83 17.41Q6.49 19.32 6.49 23.11ZM34.05 10.67L34.05 34.97L27.54 34.97L27.54 10.67L34.05 10.67ZM27.16 4.38L27.16 4.38Q27.16 2.92 28.13 1.98Q29.11 1.03 30.79 1.03L30.79 1.03Q32.46 1.03 33.44 1.98Q34.43 2.92 34.43 4.38L34.43 4.38Q34.43 5.86 33.43 6.81Q32.43 7.75 30.79 7.75Q29.15 7.75 28.15 6.81Q27.16 5.86 27.16 4.38ZM47.68 34.97L41.17 34.97L41.17 15.43L37.55 15.43L37.55 10.67L41.17 10.67L41.17 8.60Q41.17 4.51 43.52 2.26Q45.87 0 50.09 0L50.09 0Q51.44 0 53.39 0.45L53.39 0.45L53.32 5.48Q52.51 5.28 51.35 5.28L51.35 5.28Q47.68 5.28 47.68 8.71L47.68 8.71L47.68 10.67L52.51 10.67L52.51 15.43L47.68 15.43L47.68 34.97ZM64.17 34.97L57.66 34.97L57.66 15.43L54.04 15.43L54.04 10.67L57.66 10.67L57.66 8.60Q57.66 4.51 60.00 2.26Q62.35 0 66.57 0L66.57 0Q67.92 0 69.88 0.45L69.88 0.45L69.81 5.48Q69 5.28 67.83 5.28L67.83 5.28Q64.17 5.28 64.17 8.71L64.17 8.71L64.17 10.67L69 10.67L69 15.43L64.17 15.43L64.17 34.97ZM76.93 10.67L81.44 25.79L85.94 10.67L92.90 10.67L83.13 38.75L82.59 40.03Q80.41 44.79 75.40 44.79L75.40 44.79Q73.99 44.79 72.53 44.36L72.53 44.36L72.53 39.44L73.51 39.46Q75.36 39.46 76.27 38.90Q77.18 38.34 77.69 37.04L77.69 37.04L78.46 35.04L69.94 10.67L76.93 10.67Z"></path></g></svg><!----></svg>